<?xml version="1.0" encoding="UTF-8" standalone="no"?>
<svg
   version="1.1"
   id="Layer_1"
   x="0px"
   y="0px"
   width="625.96558"
   viewBox="0 0 625.96558 144.36528"
   enable-background="new 0 0 1536 1024"
   xml:space="preserve"
   sodipodi:docname="logo.svg"
   height="144.36528"
   inkscape:version="1.4.2 (ebf0e940, 2025-05-08)"
   xmlns:inkscape="http://www.inkscape.org/namespaces/inkscape"
   xmlns:sodipodi="http://sodipodi.sourceforge.net/DTD/sodipodi-0.dtd"
   xmlns="http://www.w3.org/2000/svg"
   xmlns:svg="http://www.w3.org/2000/svg"><defs
   id="defs54"><rect
     x="201.90619"
     y="136.6348"
     width="489.97061"
     height="53.957687"
     id="rect4" /><rect
     x="201.0359"
     y="143.59708"
     width="486.48947"
     height="47.865692"
     id="rect3" /><rect
     x="190.59248"
     y="134.89423"
     width="497.80319"
     height="55.698257"
     id="rect2" /><rect
     x="186.24104"
     y="128.80222"
     width="497.80319"
     height="62.660542"
     id="rect1" /></defs><sodipodi:namedview
   id="namedview54"
   pagecolor="#ffffff"
   bordercolor="#000000"
   borderopacity="0.25"
   inkscape:showpageshadow="2"
   inkscape:pageopacity="0.0"
   inkscape:pagecheckerboard="0"
   inkscape:deskcolor="#d1d1d1"
   inkscape:export-bgcolor="#ffffff00"
   inkscape:zoom="1.1490485"
   inkscape:cx="266.3073"
   inkscape:cy="93.555668"
   inkscape:window-width="2560"
   inkscape:window-height="1302"
   inkscape:window-x="1710"
   inkscape:window-y="25"
   inkscape:window-maximized="1"
   inkscape:current-layer="Layer_1"
   showgrid="false" />

<path
   fill="#46a0e4"
   opacity="1"
   stroke="none"
   d="m 499.15566,36.150296 c 5.63451,7.86767 11.05084,15.45086 17.38743,24.3225 0,-17.18072 0,-32.94143 0,-49.04202 4.4561,0 8.21771,0 12.4284,0 0,22.84479 0,45.70578 0,68.610376 -7.63509,1.61002 -13.5076,0.89844 -18.32129,-6.56308 -8.38437,-12.996516 -17.93918,-25.238116 -27.01188,-37.790036 -0.65753,-0.90963 -1.3836,-1.76968 -2.92846,-3.73471 0,16.71314 0,32.20987 0,48.099576 -4.55274,0 -8.45136,0 -12.89167,0 0,-22.801786 0,-45.648486 0,-69.027096 3.81964,0 7.47327,-0.23852 11.06635,0.12369 1.33758,0.13486 2.85089,1.43503 3.74225,2.61362 5.52264,7.30273 10.89104,14.72204 16.52887,22.38718 z"
   id="path2" />
<path
   fill="#154680"
   opacity="1"
   stroke="none"
   d="m 195.76076,54.810416 c -3.2342,13.614226 -11.51459,22.104126 -24.80377,23.935786 -11.75574,1.62027 -23.77106,1.35715 -35.87384,1.93515 0,-23.824766 0,-46.558066 0,-70.046076 13.46374,0.96866 26.80078,-1.68539 39.78033,2.43448 12.40283,3.93686 20.19544,12.07172 21.23675,25.43841 0.40954,5.25629 -0.14105,10.58738 -0.33947,16.30225 m -12.88483,-13.80618 c -0.88958,-9.4372 -5.35669,-16.02286 -13.48224,-17.63956 -6.86389,-1.36575 -14.0111,-1.30743 -21.35827,-1.90591 0,16.53186 0,31.94153 0,47.339316 24.97345,3.15485 36.72101,-5.947866 34.84051,-27.793846 z"
   id="path3" />
<path
   fill="#174882"
   opacity="1"
   stroke="none"
   d="m 331.66419,50.534106 c -5.62799,10e-4 -10.75927,10e-4 -16.16467,10e-4 0,6.18818 0,11.94446 0,18.459926 5.4278,0 11.03364,0 16.63941,0 5.6352,0 11.27033,0 17.23023,0 0,3.88788 0,7.27936 0,10.98264 -15.56903,0 -30.98554,0 -46.86719,0 0,-22.935876 0,-45.780176 0,-68.868826 15.56067,0 30.95092,0 46.66925,0 0,3.6603 0,7.05566 0,10.97772 -11.20777,0 -22.29352,0 -33.73359,0 0,6.07684 0,11.63714 0,17.80035 9.59778,0 19.18885,0 29.18714,0 0,3.78061 0,6.97321 0,10.64587 -4.22632,0 -8.3451,0 -12.96058,10e-4 z"
   id="path4" />
<path
   fill="#174882"
   opacity="1"
   stroke="none"
   d="m 412.80892,40.831106 c 8.18389,-10.13071 19.6759,-13.55591 30.3706,-9.29529 10.35986,4.12723 15.91369,15.23059 13.34308,27.45801 -11.59706,0 -23.32038,0 -35.09283,0 1.54906,12.800746 12.03527,15.687106 29.7951,8.49832 1.25378,2.427676 2.52673,4.892366 3.76886,7.297546 -5.80835,8.41092 -27.22443,9.37701 -37.38989,1.57376 -9.91358,-7.60983 -12.19147,-22.332976 -4.79492,-35.532346 m 14.55267,9.83157 c 5.93664,0 11.87329,0 17.83599,0 -1.12579,-8.16024 -4.96942,-12.01724 -11.48462,-11.70227 -6.73969,0.32581 -11.34026,4.81406 -11.74078,11.69855 1.49224,0 2.97003,0 5.3894,0.004 z"
   id="path5" />
<path
   fill="#46a0e4"
   opacity="1"
   stroke="none"
   d="m 583.69519,76.848132 c -9.5815,5.68005 -19.379,6.79202 -29.55489,3.21216 -10.24031,-3.60251 -15.5652,-12.169586 -15.7019,-24.725496 -0.11861,-10.88363 6.2346,-20.1361 16.39999,-23.88449 10.26621,-3.78552 20.76621,-1.29626 27.5771,6.91309 4.8803,5.88232 5.30731,12.9744 4.8696,20.76959 -11.9061,0 -23.4852,0 -35.0304,0 -0.5685,12.823266 12.4555,16.448816 29.569,7.83511 0.7597,3.406346 1.4611,6.551456 1.8715,9.880036 m -11.0751,-26.029656 c 2.28791,0.22415 2.75891,-0.62259 2.2881,-2.90634 -1.1213,-5.43854 -5.6971,-9.15857 -11.5093,-8.94339 -6.3819,0.23626 -10.9449,4.71878 -11.5528,11.8497 6.6526,0 13.2688,0 20.774,3e-5 z"
   id="path6" />
<path
   fill="#154680"
   opacity="1"
   stroke="none"
   d="m 253.52931,31.321216 c 4.73156,10.75919 9.14075,21.27658 14.00776,32.88611 2.02307,-4.84588 3.67822,-8.73669 5.27411,-12.65167 2.13427,-5.2356 4.427,-10.41983 6.26006,-15.7605 1.26514,-3.68582 3.14899,-5.50625 7.23505,-4.8707 2.25391,0.35056 4.60706,0.0628 7.81091,0.0628 -3.78308,8.80978 -7.2041,17.03265 -10.83154,25.16345 -5.42109,12.151516 -11.18255,24.155206 -16.39099,36.395506 -1.93341,4.54376 -4.22864,7.14337 -9.46918,6.13663 -1.75085,-0.33631 -3.6206,-0.0531 -6.16223,-0.0531 2.37903,-5.15644 4.26287,-10.04355 6.81842,-14.54969 2.49182,-4.39386 1.90589,-8.15445 -0.12359,-12.52481 -5.74085,-12.362416 -11.07776,-24.912436 -16.5658,-37.392146 -0.39308,-0.89386 -0.72132,-1.81622 -1.22096,-3.08365 4.59046,0 8.81305,0 13.35798,0.24179 z"
   id="path7" />
<path
   fill="#154680"
   opacity="1"
   stroke="none"
   d="m 402.38783,31.212456 c 1.71363,0.0691 3.01215,0.13562 5.03692,0.23935 -3.33307,7.65957 -6.42725,14.927 -9.64812,22.13785 -5.83191,13.05642 -11.94984,25.990466 -17.50032,39.164356 -1.91753,4.55136 -4.41424,6.57456 -9.2758,5.84906 -1.77821,-0.26535 -3.62916,-0.0427 -6.20527,-0.0427 2.15204,-4.80316 3.70514,-9.35574 6.12482,-13.38828 2.85785,-4.76272 2.83521,-8.91748 0.40216,-13.90722 -5.46136,-11.200256 -10.37939,-22.665986 -15.48059,-34.040736 -0.79762,-1.77848 -1.3952,-3.64667 -2.30005,-6.04172 4.01605,0 7.62171,-0.24698 11.15735,0.14224 1.1427,0.12576 2.5174,1.73535 3.07867,2.98407 4.41717,9.82874 8.66278,19.73459 13.3559,30.52393 3.01996,-7.34775 5.70154,-13.85974 8.37201,-20.37628 0.94556,-2.30747 2.18347,-4.55326 2.73021,-6.95423 1.23476,-5.42239 4.54323,-7.21063 10.15211,-6.28967 z"
   id="path8" />
<path
   fill="#46a0e4"
   opacity="1"
   stroke="none"
   d="m 605.98599,80.601792 c -6.0198,-3.55865 -7.60829,-8.99304 -7.658,-15.112666 -0.065,-7.97647 -0.016,-15.95386 -0.016,-24.31241 -2.65971,-0.27148 -4.8932,-0.49948 -7.37801,-0.75311 0,-3.00171 0,-5.76373 0,-8.97839 11.6771,1.53769 6.20051,-7.88446 8.2289,-12.94651 3.8021,-0.73599 7.6681,-1.48431 12.1423,-2.35037 0,4.94873 0,9.53284 0,14.6655 4.5546,0.24997 8.6055,0.47226 12.9242,0.70926 0,3.18072 0,6.08618 0,9.27847 -4.1869,0 -8.1495,0 -12.6765,0 0,9.03253 -0.3244,17.81754 0.283,26.5376 0.1168,1.674886 3.7053,3.613216 6.0437,4.466116 1.8281,0.66675 4.2005,-0.15905 6.2975,-0.31906 3.1264,8.2106 2.6812,9.40723 -5.6095,10.27939 -4.0002,0.42081 -8.1546,-0.62347 -12.5818,-1.16382 z"
   id="path9" />
<path
   fill="#174882"
   opacity="1"
   stroke="none"
   d="m 223.13526,43.875786 c -3.65814,2.47058 -4.82373,5.55301 -4.71172,9.59717 0.23901,8.62976 0.0731,17.270746 0.0731,26.218496 -4.21571,0 -8.1391,0 -12.44428,0 0,-16.061546 0,-32.092276 0,-48.483206 3.50293,0 7.07275,0 10.96295,0 0.35553,1.39374 0.7445,2.91839 1.29352,5.07056 5.42095,-4.28831 10.90613,-7.44547 18.06659,-6.07999 0,3.48007 0,6.90619 0,9.88489 -4.37512,1.22006 -8.63427,2.4078 -13.24017,3.79208 z"
   id="path10" />






























<g
   id="g4"
   transform="scale(0.70711417,0.72793021)"><path
     fill="#5bb3ef"
     opacity="1"
     stroke="none"
     d="m 123.81378,170.91379 c 3.41943,-3.39459 6.54266,-6.58508 9.73834,-9.84955 3.28705,1.96277 6.37494,3.80664 9.48071,5.6612 -7.42285,15.94653 -38.63232,31.70764 -62.64816,28.33319 0.5607,-3.54096 1.12167,-7.08362 1.75812,-11.10285 15.01614,0.0732 28.99496,-3.88812 41.67099,-13.04199 z"
     id="path11" /><path
     fill="#5bb3ef"
     opacity="1"
     stroke="none"
     d="m 133.22186,71.114904 c 1.35925,0.327 2.79254,0.60333 3.45025,1.46897 12.3133,16.20565 21.24341,33.721546 20.67371,54.795556 -0.0348,1.28796 -0.24304,2.57129 -0.39752,4.12823 -3.99579,-0.62118 -7.69098,-1.19561 -11.86206,-1.84405 0.43017,-19.93872 -7.76209,-36.851806 -19.64014,-52.608156 2.57428,-1.96518 5.0315,-3.84106 7.77576,-5.94055 z"
     id="path12" /><path
     fill="#1c6fbc"
     opacity="1"
     stroke="none"
     d="m 95.64453,13.230784 c -0.046,8.35333 -4.31122,13.9165 -11.29612,15.16452 -7.79171,1.39215 -14.52044,-2.10071 -17.03579,-8.8432 -2.48313,-6.6561 -0.36035,-13.4918501 5.30789,-17.0928101 9.17825,-5.83075 20.03116,-0.91818 23.02402,10.7714901 z"
     id="path13" /><path
     fill="#1c6fbc"
     opacity="1"
     stroke="none"
     d="m 0,130.71537 c 2.22314,-11.07682 10.31515,-15.90241 19.15124,-11.8089 5.74847,2.66314 8.57288,7.66055 7.71329,13.64786 -0.73178,5.09683 -6.24484,10.45205 -11.43094,11.10366 C 9.20663,144.44034 3.04302,141.00205 0.95263,135.45487 0.43484,134.08084 0.29867,132.56299 0,130.71537 Z"
     id="path14" /><path
     fill="#5bb3ef"
     opacity="1"
     stroke="none"
     d="m 107.81481,48.726844 c 7.1258,-4.44974 13.8487,-4.26254 18.59485,0.25119 5.24738,4.99042 6.11914,11.91449 2.14191,17.01291 -4.47272,5.73361 -12.99182,6.94678 -19.26618,2.74365 -5.10919,-3.42261 -6.8446,-11.15539 -3.74096,-16.90063 0.54754,-1.01364 1.32727,-1.90189 2.27038,-3.10712 z"
     id="path15" /><path
     fill="#267eca"
     opacity="1"
     stroke="none"
     d="m 11.14129,103.08835 c 4.4079,-12.413356 11.22379,-22.965446 18.96088,-32.992396 3.26742,2.15961 6.39163,4.22452 9.12582,6.03168 -6.46762,11.65863 -13.0173,23.46515 -19.74942,35.600546 -2.45615,-0.29885 -5.88949,-0.71661 -9.9472,-1.21035 0.4844,-2.35672 0.96814,-4.70997 1.60992,-7.42948 z"
     id="path16" /><path
     fill="#267eca"
     opacity="1"
     stroke="none"
     d="m 24.88916,150.3873 c 7.60571,12.17121 11.40881,16.11542 23.65454,24.59668 -1.23566,3.26001 -2.49012,6.56958 -3.86335,10.19245 -14.49353,-7.81745 -25.71518,-18.58564 -32.22488,-34.12818 3.20932,-0.92578 6.1517,-1.96551 9.18259,-2.53106 0.89453,-0.16694 2.03903,1.00543 3.2511,1.87011 z"
     id="path17" /><path
     fill="#5bb3ef"
     opacity="1"
     stroke="none"
     d="m 136.79022,154.36179 c -2.75202,-7.42914 -1.53327,-12.71411 3.48425,-16.24255 4.54889,-3.19892 10.87335,-3.27454 14.914,-0.17829 5.5426,4.24695 6.94928,12.11548 3.07935,17.22473 -4.4137,5.82734 -12.84491,6.9563 -18.58716,2.41864 -1.02435,-0.80944 -1.80914,-1.92205 -2.89044,-3.22253 z"
     id="path18" /><path
     fill="#267eca"
     opacity="1"
     stroke="none"
     d="m 72.88622,192.67795 c -4.87802,6.06293 -11.10998,7.27387 -16.37643,3.47864 -4.5824,-3.30231 -6.0339,-9.87842 -3.25119,-14.73022 3.09216,-5.3913 9.60422,-7.34064 15.14661,-4.534 5.50952,2.78998 7.30685,8.7453 4.48101,15.78558 z"
     id="path20" /><path
     fill="#46a0e4"
     opacity="1"
     stroke="none"
     d="m 54.50671,60.489114 c -2.08234,7.77756 -8.5632,11.46481 -15.07504,8.95715 -5.72614,-2.20514 -8.17499,-8.59778 -5.51896,-14.40683 1.85752,-4.06253 6.50364,-6.52032 11.0618,-5.85168 5.56696,0.81665 8.46021,4.11929 9.5322,11.30136 z"
     id="path21" /><path
     fill="#267eca"
     opacity="1"
     stroke="none"
     d="m 62.55023,30.530254 c 1.26513,-0.3963 2.61273,-1.01459 3.2792,-0.58246 2.34744,1.52203 4.46112,3.40454 7.18204,5.56131 -4.4783,5.55185 -8.91339,11.05008 -13.33429,16.53076 -3.10791,-2.69629 -5.82187,-5.05078 -8.91751,-7.73642 3.82605,-4.47235 7.69336,-8.99289 11.79056,-13.77319 z"
     id="path32" /><path
     fill="#267eca"
     opacity="1"
     stroke="none"
     d="m 106.88629,37.293774 c 0.87231,1.16345 1.53827,2.05825 2.14941,2.8793 -2.86908,2.30856 -5.51794,4.43994 -8.45221,6.80093 -3.61743,-3.85602 -7.19855,-7.67331 -10.84045,-11.55536 3.15252,-2.41162 5.99847,-4.58865 9.12945,-6.98376 2.55274,2.80868 5.18012,5.69943 8.0138,8.85889 z"
     id="path41" /></g>













<text
   xml:space="preserve"
   id="text1"
   style="font-style:normal;font-variant:normal;font-weight:normal;font-stretch:normal;font-family:Inter;-inkscape-font-specification:Inter;text-align:start;writing-mode:lr-tb;direction:ltr;white-space:pre;shape-inside:url(#rect1);display:inline;fill:#000000"
   transform="translate(-66.995405,-31.957688)" /><text
   xml:space="preserve"
   id="text2"
   style="font-style:normal;font-variant:normal;font-weight:normal;font-stretch:normal;font-family:Inter;-inkscape-font-specification:Inter;text-align:start;writing-mode:lr-tb;direction:ltr;white-space:pre;shape-inside:url(#rect2);display:inline;fill:#000000"
   transform="translate(-66.995405,-31.957688)" /><text
   xml:space="preserve"
   id="text3"
   style="font-style:normal;font-variant:normal;font-weight:normal;font-stretch:normal;font-family:Inter;-inkscape-font-specification:Inter;text-align:start;writing-mode:lr-tb;direction:ltr;white-space:pre;shape-inside:url(#rect3);display:inline;fill:#000000"
   transform="translate(-66.995405,-31.957688)" /><text
   xml:space="preserve"
   id="text4"
   style="font-style:normal;font-variant:normal;font-weight:normal;font-stretch:normal;font-size:36px;font-family:Inter;-inkscape-font-specification:Inter;text-align:start;writing-mode:lr-tb;direction:ltr;white-space:pre;shape-inside:url(#rect4);display:inline;fill:#000000"
   transform="translate(-62.995405,-31.957688)"><tspan
     x="201.90625"
     y="169.95801"
     id="tspan2"><tspan
       style="fill:#899099"
       id="tspan1">SMARTDRYEYES Guidelines</tspan></tspan></text></svg>
