<?xml version="1.0" encoding="UTF-8" standalone="no"?>
<svg
   version="1.0"
   preserveAspectRatio="xMidYMid"
   viewBox="39 129.75 294.38657 97.940016"
   zoomAndPan="magnify"
   width="294.38657"
   height="97.940018"
   id="svg41"
   sodipodi:docname="SDElogo.svg"
   inkscape:version="1.4.2 (ebf0e940, 2025-05-08)"
   xmlns:inkscape="http://www.inkscape.org/namespaces/inkscape"
   xmlns:sodipodi="http://sodipodi.sourceforge.net/DTD/sodipodi-0.dtd"
   xmlns="http://www.w3.org/2000/svg"
   xmlns:svg="http://www.w3.org/2000/svg">
  <sodipodi:namedview
     id="namedview41"
     pagecolor="#ffffff"
     bordercolor="#000000"
     borderopacity="0.25"
     inkscape:showpageshadow="2"
     inkscape:pageopacity="0.0"
     inkscape:pagecheckerboard="0"
     inkscape:deskcolor="#d1d1d1"
     inkscape:zoom="1.9259259"
     inkscape:cx="145.38462"
     inkscape:cy="44.913462"
     inkscape:window-width="2032"
     inkscape:window-height="940"
     inkscape:window-x="1874"
     inkscape:window-y="152"
     inkscape:window-maximized="0"
     inkscape:current-layer="svg41" />
  <defs
     id="defs1">
    <g
       id="g1" />
    <clipPath
       id="e3dc6b9743">
      <path
         clip-rule="nonzero"
         d="m 299.80859,209.50391 h 18.75 v 18.75 h -18.75 z m 0,0"
         id="path1" />
    </clipPath>
  </defs>
  <g
     fill-opacity="1"
     fill="#1b1001"
     id="g4"
     transform="translate(-2.257814,-5.171845)">
    <g
       transform="translate(39.023439,191.87497)"
       id="g3">
      <g
         id="g2">
        <path
           d="m 25.046875,0.953125 c -4.429687,0 -8.710937,-0.601563 -12.84375,-1.796875 -4.136719,-1.195312 -7.460937,-2.753906 -9.96875,-4.671875 l 4.40625,-9.765625 c 2.394531,1.761719 5.242187,3.179688 8.546875,4.25 3.3125,1.0625 6.625,1.59375 9.9375,1.59375 3.675781,0 6.394531,-0.546875 8.15625,-1.640625 1.757812,-1.09375 2.640625,-2.546875 2.640625,-4.359375 0,-1.332031 -0.523437,-2.4375 -1.5625,-3.3125 -1.042969,-0.882812 -2.375,-1.59375 -4,-2.125 -1.625,-0.539062 -3.824219,-1.128906 -6.59375,-1.765625 C 19.492188,-23.648438 16,-24.660156 13.28125,-25.671875 c -2.71875,-1.019531 -5.054688,-2.648437 -7,-4.890625 -1.949219,-2.238281 -2.921875,-5.222656 -2.921875,-8.953125 0,-3.257813 0.878906,-6.207031 2.640625,-8.84375 1.757812,-2.632813 4.410156,-4.722656 7.953125,-6.265625 3.550781,-1.550781 7.882813,-2.328125 13,-2.328125 3.570313,0 7.066406,0.429687 10.484375,1.28125 3.414062,0.84375 6.40625,2.070313 8.96875,3.671875 l -4,9.84375 c -5.179688,-2.9375 -10.355469,-4.40625 -15.53125,-4.40625 -3.625,0 -6.308594,0.589844 -8.046875,1.765625 -1.730469,1.167969 -2.59375,2.714844 -2.59375,4.640625 0,1.917969 1,3.34375 3,4.28125 2,0.929688 5.054687,1.84375 9.171875,2.75 4.257812,1.023438 7.75,2.039062 10.46875,3.046875 2.71875,1.011719 5.050781,2.609375 7,4.796875 1.945312,2.1875 2.921875,5.148438 2.921875,8.875 0,3.210938 -0.898437,6.132812 -2.6875,8.765625 -1.78125,2.636719 -4.460937,4.730469 -8.03125,6.28125 -3.574219,1.539063 -7.917969,2.3125 -13.03125,2.3125 z m 0,0"
           id="path2" />
      </g>
    </g>
  </g>
  <g
     fill-opacity="1"
     fill="#1b1001"
     id="g7"
     transform="translate(-2.257814,-5.171845)">
    <g
       transform="translate(90.058478,191.87497)"
       id="g6">
      <g
         id="g5">
        <path
           d="M 57.59375,0 57.51562,-33.59375 41.04687,-5.921875 H 35.20312 L 18.796875,-32.875 V 0 H 6.640625 v -56 h 10.71875 L 38.3125,-21.203125 58.953125,-56 H 69.59375 l 0.171875,56 z m 0,0"
           id="path4" />
      </g>
    </g>
  </g>
  <g
     fill-opacity="1"
     fill="#1b1001"
     id="g10"
     transform="translate(-2.257814,-5.171845)">
    <g
       transform="translate(166.45106,191.87497)"
       id="g9">
      <g
         id="g8">
        <path
           d="m 43.515625,-12 h -26 L 12.5625,0 H -0.71875 l 24.953125,-56 h 12.8125 l 25.03125,56 h -13.59375 z m -4.078125,-9.84375 -8.875,-21.4375 -8.875,21.4375 z m 0,0"
           id="path7" />
      </g>
    </g>
  </g>
  <g
     fill-opacity="1"
     fill="#1b1001"
     id="g13"
     transform="translate(-2.257814,-5.171845)">
    <g
       transform="translate(227.7251,191.87497)"
       id="g12">
      <g
         id="g11">
        <path
           d="M 42.3125,0 31.515625,-15.59375 H 19.59375 V 0 H 6.640625 V -56 H 30.875 c 4.957031,0 9.265625,0.828125 12.921875,2.484375 3.65625,1.648437 6.46875,3.992187 8.4375,7.03125 1.976563,3.042969 2.96875,6.640625 2.96875,10.796875 0,4.167969 -1,7.757812 -3,10.765625 -2,3.011719 -4.839844,5.320313 -8.515625,6.921875 L 56.234375,0 Z m -0.234375,-35.6875 c 0,-3.144531 -1.015625,-5.554688 -3.046875,-7.234375 -2.023438,-1.675781 -4.980469,-2.515625 -8.875,-2.515625 h -10.5625 v 19.515625 h 10.5625 c 3.894531,0 6.851562,-0.851563 8.875,-2.5625 2.03125,-1.707031 3.046875,-4.109375 3.046875,-7.203125 z m 0,0"
           id="path10" />
      </g>
    </g>
  </g>
  <g
     fill-opacity="1"
     fill="#1b1001"
     id="g16"
     transform="translate(-2.257814,-5.171845)">
    <g
       transform="translate(286.51939,191.87497)"
       id="g15">
      <g
         id="g14">
        <path
           d="M 18.234375,-45.4375 H 0.3125 V -56 H 49.125 v 10.5625 H 31.203125 V 0 h -12.96875 z m 0,0"
           id="path13" />
      </g>
    </g>
  </g>
  <g
     fill-opacity="1"
     fill="#737373"
     id="g19"
     transform="translate(-2.257814,-5.171845)">
    <g
       transform="translate(83.979417,232.37749)"
       id="g18">
      <g
         id="g17">
        <path
           d="m 3.3125,-28 h 12.734375 c 3.03125,0 5.710937,0.585938 8.046875,1.75 2.332031,1.15625 4.144531,2.789062 5.4375,4.890625 1.300781,2.105469 1.953125,4.558594 1.953125,7.359375 0,2.804688 -0.652344,5.257812 -1.953125,7.359375 -1.292969,2.105469 -3.105469,3.742187 -5.4375,4.90625 C 21.757812,-0.578125 19.078125,0 16.046875,0 H 3.3125 Z m 12.40625,22.6875 c 2.800781,0 5.035156,-0.78125 6.703125,-2.34375 1.664063,-1.5625 2.5,-3.675781 2.5,-6.34375 0,-2.664062 -0.835937,-4.78125 -2.5,-6.34375 -1.667969,-1.5625 -3.902344,-2.34375 -6.703125,-2.34375 H 9.796875 v 17.375 z m 0,0"
           id="path16" />
      </g>
    </g>
  </g>
  <g
     fill-opacity="1"
     fill="#737373"
     id="g22"
     transform="translate(-2.257814,-5.171845)">
    <g
       transform="translate(117.01614,232.37749)"
       id="g21">
      <g
         id="g20">
        <path
           d="M 21.15625,0 15.765625,-7.796875 H 9.796875 V 0 H 3.3125 v -28 h 12.125 c 2.476562,0 4.628906,0.417969 6.453125,1.25 1.832031,0.824219 3.238281,1.996094 4.21875,3.515625 0.988281,1.523437 1.484375,3.320313 1.484375,5.390625 0,2.085938 -0.5,3.882812 -1.5,5.390625 -1,1.5 -2.417969,2.652344 -4.25,3.453125 L 28.125,0 Z m -0.109375,-17.84375 c 0,-1.570312 -0.511719,-2.773438 -1.53125,-3.609375 -1.011719,-0.84375 -2.492187,-1.265625 -4.4375,-1.265625 h -5.28125 v 9.765625 h 5.28125 c 1.945313,0 3.425781,-0.425781 4.4375,-1.28125 1.019531,-0.851563 1.53125,-2.054687 1.53125,-3.609375 z m 0,0"
           id="path19" />
      </g>
    </g>
  </g>
  <g
     fill-opacity="1"
     fill="#737373"
     id="g25"
     transform="translate(-2.257814,-5.171845)">
    <g
       transform="translate(146.41322,232.37749)"
       id="g24">
      <g
         id="g23">
        <path
           d="M 16.765625,-9.921875 V 0 H 10.28125 V -10 L -0.5625,-28 h 6.875 L 13.796875,-15.5625 21.28125,-28 h 6.359375 z m 0,0"
           id="path22" />
      </g>
    </g>
  </g>
  <g
     fill-opacity="1"
     fill="#737373"
     id="g28"
     transform="translate(-2.257814,-5.171845)">
    <g
       transform="translate(173.45053,232.37749)"
       id="g27">
      <g
         id="g26" />
    </g>
  </g>
  <g
     fill-opacity="1"
     fill="#737373"
     id="g31"
     transform="translate(-2.257814,-5.171845)">
    <g
       transform="translate(184.7694,232.37749)"
       id="g30">
      <g
         id="g29">
        <path
           d="M 25,-5.203125 V 0 H 3.3125 v -28 h 21.171875 v 5.203125 H 9.765625 v 6.078125 h 13 v 5.03125 h -13 v 6.484375 z m 0,0"
           id="path28" />
      </g>
    </g>
  </g>
  <g
     fill-opacity="1"
     fill="#737373"
     id="g34"
     transform="translate(-2.257814,-5.171845)">
    <g
       transform="translate(211.60674,232.37749)"
       id="g33">
      <g
         id="g32">
        <path
           d="M 16.765625,-9.921875 V 0 H 10.28125 V -10 L -0.5625,-28 h 6.875 L 13.796875,-15.5625 21.28125,-28 h 6.359375 z m 0,0"
           id="path31" />
      </g>
    </g>
  </g>
  <g
     fill-opacity="1"
     fill="#737373"
     id="g37"
     transform="translate(-2.257814,-5.171845)">
    <g
       transform="translate(238.64405,232.37749)"
       id="g36">
      <g
         id="g35">
        <path
           d="M 25,-5.203125 V 0 H 3.3125 v -28 h 21.171875 v 5.203125 H 9.765625 v 6.078125 h 13 v 5.03125 h -13 v 6.484375 z m 0,0"
           id="path34" />
      </g>
    </g>
  </g>
  <g
     fill-opacity="1"
     fill="#737373"
     id="g40"
     transform="translate(-2.257814,-5.171845)">
    <g
       transform="translate(265.48139,232.37749)"
       id="g39">
      <g
         id="g38">
        <path
           d="M 12.515625,0.484375 C 10.304688,0.484375 8.164062,0.1875 6.09375,-0.40625 4.03125,-1.007812 2.375,-1.796875 1.125,-2.765625 l 2.1875,-4.875 c 1.207031,0.886719 2.632812,1.59375 4.28125,2.125 1.65625,0.53125 3.3125,0.796875 4.96875,0.796875 1.832031,0 3.1875,-0.269531 4.0625,-0.8125 0.882812,-0.550781 1.328125,-1.28125 1.328125,-2.1875 0,-0.664062 -0.261719,-1.21875 -0.78125,-1.65625 -0.511719,-0.445312 -1.179687,-0.800781 -2,-1.0625 -0.8125,-0.269531 -1.914063,-0.5625 -3.296875,-0.875 -2.125,-0.507812 -3.871094,-1.015625 -5.234375,-1.515625 -1.367187,-0.507813 -2.53125,-1.320313 -3.5,-2.4375 -0.96875,-1.125 -1.453125,-2.625 -1.453125,-4.5 0,-1.625 0.4375,-3.09375 1.3125,-4.40625 0.875,-1.320313 2.195312,-2.367187 3.96875,-3.140625 1.78125,-0.78125 3.953125,-1.171875 6.515625,-1.171875 1.78125,0 3.523437,0.214844 5.234375,0.640625 1.707031,0.429688 3.203125,1.042969 4.484375,1.84375 l -2,4.921875 c -2.59375,-1.46875 -5.183594,-2.203125 -7.765625,-2.203125 -1.8125,0 -3.152344,0.296875 -4.015625,0.890625 -0.867187,0.585937 -1.296875,1.355469 -1.296875,2.3125 0,0.960937 0.5,1.671875 1.5,2.140625 1,0.46875 2.523438,0.929688 4.578125,1.375 2.132813,0.511719 3.878906,1.023438 5.234375,1.53125 1.363281,0.5 2.53125,1.296875 3.5,2.390625 0.976562,1.09375 1.46875,2.574219 1.46875,4.4375 0,1.605469 -0.449219,3.070313 -1.34375,4.390625 -0.898438,1.3125 -2.242188,2.359375 -4.03125,3.140625 -1.78125,0.7695312 -3.953125,1.15625 -6.515625,1.15625 z m 0,0"
           id="path37" />
      </g>
    </g>
  </g>
  <g
     clip-path="url(#e3dc6b9743)"
     id="g41"
     transform="translate(-2.257814,-5.171845)">
    <path
       fill-rule="evenodd"
       fill-opacity="1"
       d="m 309.18359,209.50391 c 5.17969,0 9.375,4.19531 9.375,9.375 0,5.17578 -4.19531,9.375 -9.375,9.375 -5.17578,0 -9.375,-4.19922 -9.375,-9.375 0,-5.17969 4.19922,-9.375 9.375,-9.375 z m 0,0"
       fill="#f4009e"
       id="path40" />
  </g>
</svg>
